<svg width="23" height="22" viewBox="0 0 23 22" fill="none" xmlns="http://www.w3.org/2000/svg">
<g clip-path="url(#clip0_4_473)">
<path d="M13.1201 19.3844C13.1201 17.9636 11.9643 16.8119 10.5383 16.8119C9.11235 16.8119 7.95648 17.9636 7.95648 19.3844C7.95648 20.8053 9.11235 21.957 10.5383 21.957C11.9643 21.957 13.1201 20.8053 13.1201 19.3844Z" fill="#F7C92B"/>
<path d="M10.5382 16.8119C10.2772 16.8119 10.0253 16.8508 9.78783 16.9226C10.8477 17.2429 11.6193 18.2236 11.6193 19.3844C11.6193 20.5451 10.8477 21.526 9.78783 21.8463C10.0253 21.9181 10.2772 21.957 10.5382 21.957C11.9642 21.957 13.12 20.8053 13.12 19.3844C13.12 17.9636 11.9642 16.8119 10.5382 16.8119Z" fill="#F2B51D"/>
<path d="M10.8398 4.3699C10.0105 4.5359 9.20344 4.00081 9.03678 3.1745C8.87011 2.34836 9.40727 1.54404 10.2364 1.37804C11.0655 1.21204 11.8727 1.74713 12.0394 2.57344C12.2059 3.39958 11.6689 4.2039 10.8398 4.3699Z" fill="#F7C92B"/>
<path d="M12.0395 2.57344C11.8729 1.74713 11.0656 1.21204 10.2365 1.37804C10.1593 1.39348 10.0848 1.41463 10.013 1.44047C10.497 1.61705 10.8803 2.03297 10.9893 2.57344C11.1405 3.32271 10.7126 4.05402 10.0132 4.30746C10.2691 4.40079 10.5532 4.42731 10.8399 4.3699C11.669 4.2039 12.206 3.39958 12.0395 2.57344Z" fill="#F2B51D"/>
<path d="M16.9328 18.9539H4.14344C2.999 18.9539 2.07135 18.0296 2.07135 16.8894C2.07135 16.2581 2.35809 15.6608 2.85118 15.2645L3.26203 14.9342C4.21239 14.1705 4.76501 13.0192 4.76501 11.8027V9.6329C4.76501 6.43156 7.36937 3.83649 10.5822 3.83649C13.7948 3.83649 16.3994 6.43156 16.3994 9.6329V11.8428C16.3994 13.0363 16.9313 14.1685 17.8514 14.9328L18.2515 15.2652C18.7289 15.6618 19.0049 16.2493 19.0049 16.8686V16.8894C19.0049 18.0296 18.0772 18.9539 16.9328 18.9539Z" fill="#F7E249"/>
<path d="M18.2514 15.2652L17.8513 14.9328C16.9312 14.1683 16.3993 13.0363 16.3993 11.8426V9.63272C16.3993 6.43155 13.7948 3.8363 10.5821 3.8363C10.0128 3.8363 9.46291 3.91821 8.94308 4.07011C11.3577 4.77524 13.1212 6.9987 13.1212 9.63272V11.8426C13.1212 13.0363 13.6532 14.1683 14.5733 14.9328L14.9735 15.2652C15.4508 15.6618 15.7269 16.2492 15.7269 16.8686V16.8894C15.7269 18.0296 14.7993 18.9539 13.6548 18.9539H16.9329C18.0772 18.9539 19.0048 18.0296 19.0048 16.8894V16.8686C19.0048 16.2492 18.7289 15.6618 18.2514 15.2652Z" fill="#F7C92B"/>
<path d="M20.9964 4.93184C20.9964 2.18436 18.7612 -0.0429688 16.0038 -0.0429688C13.2464 -0.0429688 11.011 2.18436 11.011 4.93184C11.011 7.67932 13.2464 9.90665 16.0038 9.90665C18.7612 9.90665 20.9964 7.67932 20.9964 4.93184Z" fill="#F2545D"/>
<path d="M17.3434 0.138489C18.6167 1.03999 19.4473 2.52158 19.4473 4.19652C19.4473 6.944 17.2121 9.17133 14.4547 9.17133C13.9905 9.17133 13.5413 9.10805 13.115 8.98988C13.9303 9.56728 14.9273 9.90666 16.0037 9.90666C18.761 9.90666 20.9964 7.67934 20.9964 4.93185C20.9964 2.64679 19.4502 0.721924 17.3434 0.138489Z" fill="#CC474E"/>
<path d="M16.0039 7.25535C15.8114 7.25535 15.6553 7.09992 15.6553 6.90807V3.55819L15.5253 3.67652C15.383 3.80576 15.1625 3.79569 15.0329 3.65386C14.9032 3.5122 14.9133 3.29249 15.0556 3.16325L15.769 2.51502C15.8711 2.42237 16.0182 2.39837 16.1447 2.45393C16.271 2.50948 16.3524 2.63403 16.3524 2.77166V6.90807C16.3524 7.09992 16.1963 7.25535 16.0039 7.25535Z" fill="#E3FAFF"/>
</g>
<defs>
<clipPath id="clip0_4_473">
<rect width="22" height="22" fill="white" transform="translate(0.5)"/>
</clipPath>
</defs>
</svg>
